<?xml version="1.0" standalone="no"?>
<!DOCTYPE svg PUBLIC "-//W3C//DTD SVG 20010904//EN"
 "http://www.w3.org/TR/2001/REC-SVG-20010904/DTD/svg10.dtd">
<svg version="1.0" xmlns="http://www.w3.org/2000/svg"
 width="1280.000000pt" height="853.000000pt" viewBox="0 0 1280.000000 853.000000"
 preserveAspectRatio="xMidYMid meet">
<metadata>
Created by potrace 1.15, written by Peter Selinger 2001-2017
</metadata>
<g transform="translate(0.000000,853.000000) scale(0.100000,-0.100000)"
fill="#000000" stroke="none">
<path d="M4630 6190 c-1218 -131 -2275 -245 -2348 -254 -136 -16 -184 -32
-202 -65 -15 -28 35 -66 118 -90 37 -11 562 -153 1167 -316 605 -163 1109
-299 1120 -304 19 -8 21 -37 61 -937 22 -511 39 -931 38 -932 -1 -2 -319 62
-705 142 -680 142 -703 148 -738 178 -42 37 -129 78 -180 85 -21 3 -52 -1 -71
-9 l-35 -15 -785 334 c-432 184 -825 348 -875 364 -230 78 -460 14 -691 -192
-146 -130 -250 -283 -310 -454 -39 -112 -45 -268 -15 -379 52 -191 167 -332
337 -415 34 -17 433 -145 886 -285 l823 -255 56 -54 56 -55 -36 -10 c-20 -6
-89 -22 -155 -36 -125 -27 -173 -47 -240 -100 -23 -18 -65 -47 -94 -66 -53
-33 -72 -60 -72 -104 0 -13 -9 -31 -19 -40 -31 -28 -46 -73 -31 -91 11 -13 6
-15 -32 -15 -57 0 -200 25 -254 43 -27 10 -63 13 -113 9 -84 -6 -82 -20 4 -27
33 -2 96 -14 140 -26 52 -13 130 -23 225 -28 130 -6 150 -10 197 -34 28 -15
55 -32 59 -38 16 -27 90 -49 169 -50 l80 0 -80 -40 c-43 -21 -84 -39 -91 -39
-6 0 -17 -7 -24 -15 -7 -8 -29 -19 -49 -25 -20 -5 -45 -16 -56 -23 -17 -13
-14 -14 27 -13 26 1 54 9 64 16 15 14 16 13 10 -10 l-6 -25 12 24 c8 16 58 45
157 93 l146 71 102 -6 c149 -8 216 4 331 62 53 27 135 61 182 76 108 35 157
60 192 97 l28 30 727 -418 c401 -229 754 -428 786 -441 73 -30 194 -40 268
-23 236 54 499 301 662 621 23 47 45 78 52 75 50 -19 235 -71 355 -100 399
-97 771 -143 1245 -153 700 -15 1341 80 1819 269 428 169 682 394 718 636 6
37 54 601 107 1254 53 653 99 1189 101 1192 8 7 977 286 995 286 10 0 26 -22
42 -56 21 -46 26 -77 31 -163 5 -120 -1 -200 -63 -851 -57 -596 -54 -570 -69
-570 -7 0 -21 -9 -32 -21 -15 -16 -16 -24 -6 -39 10 -16 9 -21 -9 -31 -34 -18
-59 -90 -70 -206 -14 -146 -65 -418 -94 -512 -41 -127 -33 -167 37 -196 69
-28 197 -37 235 -16 30 15 41 85 32 202 -6 94 1 317 17 536 8 98 1 142 -27
171 -18 20 -19 24 -5 38 21 20 20 23 -9 54 l-24 25 39 335 c116 988 122 1139
56 1273 l-23 47 51 15 c28 9 348 101 711 206 363 105 703 204 755 220 176 53
211 97 117 146 -39 20 56 8 -1702 212 -3311 385 -3962 460 -4025 465 -45 4
-732 -67 -2280 -234z m-1585 -2538 c68 -32 107 -67 64 -58 -13 3 -55 12 -92
21 -37 8 -82 22 -100 31 -29 16 -30 18 -12 25 38 15 80 9 140 -19z m-667
-1308 c88 -27 92 -35 20 -48 -34 -6 -42 -3 -80 33 -24 22 -39 41 -34 41 4 0
47 -12 94 -26z"/>
</g>
</svg>
