<svg xmlns="http://www.w3.org/2000/svg" viewBox="0 0 500 500"><defs><style>.cls-1,.cls-2,.cls-3,.cls-6{fill:none;stroke-miterlimit:10;}.cls-1,.cls-2,.cls-3{stroke:#0683a2;}.cls-1{stroke-width:15px;}.cls-2{stroke-width:8px;}.cls-3,.cls-6{stroke-width:5px;}.cls-4{fill:#0683a2;}.cls-5{fill:#4b4b4b;}.cls-6{stroke:#4b4b4b;}</style></defs><title>fPlan de travail 1</title><g id="Ellipse_1" data-name="Ellipse 1"><path class="cls-1" d="M249.5,40.5a209.88,209.88,0,0,1,210,210"/><path class="cls-1" d="M41.5,280.5a210.67,210.67,0,0,0,134,167"/><path class="cls-1" d="M100.5,102.5a165.54,165.54,0,0,1,37-30"/><path class="cls-1" d="M407.5,388.5a201.79,201.79,0,0,1-104,65"/></g><g id="Ellipse_2" data-name="Ellipse 2"><path class="cls-1" d="M144.5,125.5a161.93,161.93,0,0,1,145-32"/><path class="cls-1" d="M392.5,178.5a142.39,142.39,0,0,0-42-53"/><path class="cls-1" d="M185.5,400.5c56.57,23,121.12,13,167-26,66.91-56.85,55.77-142.75,55-148"/></g><g id="Ellipse_3" data-name="Ellipse 3"><path class="cls-2" d="M188,154c-6.68,4.73-41.38,30.32-49,78-9,56.53,27.61,96.39,32,101"/><path class="cls-2" d="M271,363a115,115,0,0,0,67-40"/><path class="cls-2" d="M364,243a111.19,111.19,0,0,0-65-96"/></g><g id="Ellipse_4" data-name="Ellipse 4"><path class="cls-3" d="M191.5,287.5c3.39,4.63,18,23.51,45,29a74.81,74.81,0,0,0,47-6"/><path class="cls-3" d="M192.5,201.5c3.69-4.76,17.8-21.79,43-27,30.16-6.23,53.08,9.26,57,12"/><path class="cls-3" d="M316.5,275.5a84.31,84.31,0,0,0,6-35"/></g><g id="Arrondis"><circle class="cls-4" cx="188" cy="154" r="4"/><circle class="cls-4" cx="299" cy="147" r="4"/><circle class="cls-4" cx="364" cy="244" r="4"/><circle class="cls-4" cx="338" cy="323" r="4"/><circle class="cls-4" cx="271" cy="363" r="4"/><circle class="cls-4" cx="171" cy="333" r="4"/><circle class="cls-4" cx="192.5" cy="201.5" r="2.5"/><circle class="cls-4" cx="292.5" cy="186.5" r="2.5"/><circle class="cls-4" cx="322.5" cy="240.5" r="2.5"/><circle class="cls-4" cx="316.5" cy="275.5" r="2.5"/><circle class="cls-4" cx="283.5" cy="310.5" r="2.5"/><circle class="cls-4" cx="191.5" cy="287.5" r="2.5"/><circle class="cls-4" cx="137.5" cy="72.5" r="7.5"/><circle class="cls-4" cx="100.5" cy="102.5" r="7.5"/><circle class="cls-4" cx="249.5" cy="40.5" r="7.5"/><circle class="cls-4" cx="459.5" cy="251.5" r="7.5"/><circle class="cls-4" cx="407.5" cy="388.5" r="7.5"/><circle class="cls-4" cx="303.5" cy="453.5" r="7.5"/><circle class="cls-4" cx="175.5" cy="447.5" r="7.5"/><circle class="cls-4" cx="41.5" cy="280.5" r="7.5"/><circle class="cls-4" cx="144.5" cy="125.5" r="7.5"/><circle class="cls-4" cx="289.5" cy="93.5" r="7.5"/><circle class="cls-4" cx="350.5" cy="125.5" r="7.5"/><circle class="cls-4" cx="392.5" cy="178.5" r="7.5"/><circle class="cls-4" cx="407.5" cy="226.5" r="7.5"/><circle class="cls-4" cx="185.5" cy="400.5" r="7.5"/></g><g id="Oeil"><circle class="cls-4" cx="250.5" cy="250.5" r="43"/><circle class="cls-5" cx="250" cy="250" r="26.5"/><line class="cls-6" x1="223.5" y1="223.5" x2="276.5" y2="276.5"/><line class="cls-6" x1="276.5" y1="223.5" x2="223.5" y2="275.5"/><circle class="cls-5" cx="223.5" cy="223.5" r="2.5"/><circle class="cls-5" cx="276.5" cy="223.5" r="2.5"/><circle class="cls-5" cx="223.5" cy="275.5" r="2.5"/><circle class="cls-5" cx="276.5" cy="276.5" r="2.5"/></g></svg>